<svg xmlns="http://www.w3.org/2000/svg" version="1.1" xmlns:xlink="http://www.w3.org/1999/xlink" xmlns:svgjs="http://svgjs.dev/svgjs" width="2000" height="1500" viewBox="0 0 2000 1500"><rect width="2000" height="1500" fill="#050816"></rect><g transform="matrix(0.75,0,0,0.75,250.5562323182329,258.0236842105263)"><svg viewBox="0 0 376 247" data-background-color="#050816" preserveAspectRatio="xMidYMid meet" height="1313" width="2000" xmlns="http://www.w3.org/2000/svg" xmlns:xlink="http://www.w3.org/1999/xlink"><g id="tight-bounds" transform="matrix(1,0,0,1,-0.1394289011037131,-0.09999999999999432)"><svg viewBox="0 0 376.2788578022074 247.2" height="247.2" width="376.2788578022074"><g><svg viewBox="0 0 397.4976 261.13985594070107" height="247.2" width="376.2788578022074"><g><rect width="397.4976" height="7.998368883246545" x="0" y="143.51098498327275" fill="#ff908b" opacity="1" stroke-width="0" stroke="transparent" fill-opacity="1" class="rect-qz-0" data-fill-palette-color="secondary" rx="1%" id="qz-0" data-palette-color="#ff908b"></rect></g><g transform="matrix(1,0,0,1,0.9887999999999693,172.44749230433746)"><svg viewBox="0 0 395.52000000000004 88.69236363636364" height="88.69236363636364" width="395.52000000000004"><g id="textblocktransform"><svg viewBox="0 0 395.52000000000004 88.69236363636364" height="88.69236363636364" width="395.52000000000004" id="textblock"><g><svg viewBox="0 0 395.52000000000004 88.69236363636364" height="88.69236363636364" width="395.52000000000004"><g transform="matrix(1,0,0,1,0,0)"><svg width="395.52000000000004" viewBox="4.25 -36.5 164.99 37" height="88.69236363636364" data-palette-color="#ffffff"><path d="M39.45 0L34.95 0 34.95-27.1 23.25-6.25 20.5-6.25 8.75-27.1 8.75 0 4.25 0 4.25-35.5 9-35.5 21.85-12.45 34.75-35.5 39.45-35.5 39.45 0ZM58.35 0.5L58.35 0.5Q55.4 0.5 52.97-0.58 50.55-1.65 48.77-3.53 47-5.4 46.02-7.85 45.05-10.3 45.05-13.05L45.05-13.05Q45.05-16.75 46.75-19.8 48.45-22.85 51.47-24.7 54.5-26.55 58.4-26.55L58.4-26.55Q62.35-26.55 65.27-24.68 68.2-22.8 69.82-19.78 71.45-16.75 71.45-13.25L71.45-13.25Q71.45-12.75 71.42-12.28 71.4-11.8 71.35-11.55L71.35-11.55 49.7-11.55Q49.9-9 51.12-7.03 52.35-5.05 54.3-3.93 56.25-2.8 58.5-2.8L58.5-2.8Q60.9-2.8 63.02-4 65.15-5.2 65.95-7.15L65.95-7.15 69.75-6.1Q68.9-4.2 67.22-2.7 65.55-1.2 63.27-0.35 61 0.5 58.35 0.5ZM49.55-14.6L49.55-14.6 67.35-14.6Q67.15-17.15 65.9-19.1 64.65-21.05 62.7-22.15 60.75-23.25 58.4-23.25L58.4-23.25Q56.1-23.25 54.15-22.15 52.2-21.05 50.97-19.1 49.75-17.15 49.55-14.6ZM76.45-5.15L76.45-36.5 80.84-36.5 80.84-6.75Q80.84-4.6 81.45-4.1 82.05-3.6 82.9-3.6L82.9-3.6Q83.95-3.6 84.9-3.83 85.84-4.05 86.5-4.3L86.5-4.3 87.2-0.7Q86.09-0.25 84.59 0.05 83.09 0.35 81.95 0.35L81.95 0.35Q79.39 0.35 77.92-1.1 76.45-2.55 76.45-5.15L76.45-5.15ZM102.19 0.5L102.19 0.5Q99.24 0.5 96.82-0.58 94.39-1.65 92.62-3.53 90.84-5.4 89.87-7.85 88.89-10.3 88.89-13.05L88.89-13.05Q88.89-16.75 90.59-19.8 92.29-22.85 95.32-24.7 98.34-26.55 102.24-26.55L102.24-26.55Q106.19-26.55 109.12-24.68 112.04-22.8 113.67-19.78 115.29-16.75 115.29-13.25L115.29-13.25Q115.29-12.75 115.27-12.28 115.24-11.8 115.19-11.55L115.19-11.55 93.54-11.55Q93.74-9 94.97-7.03 96.19-5.05 98.14-3.93 100.09-2.8 102.34-2.8L102.34-2.8Q104.74-2.8 106.87-4 108.99-5.2 109.79-7.15L109.79-7.15 113.59-6.1Q112.74-4.2 111.07-2.7 109.39-1.2 107.12-0.35 104.84 0.5 102.19 0.5ZM93.39-14.6L93.39-14.6 111.19-14.6Q110.99-17.15 109.74-19.1 108.49-21.05 106.54-22.15 104.59-23.25 102.24-23.25L102.24-23.25Q99.94-23.25 97.99-22.15 96.04-21.05 94.82-19.1 93.59-17.15 93.39-14.6ZM129.14 0.5L129.14 0.5Q125.89 0.5 123.04-0.58 120.19-1.65 118.14-3.8L118.14-3.8 119.84-6.9Q122.09-4.8 124.34-3.9 126.59-3 128.94-3L128.94-3Q131.64-3 133.34-4.03 135.04-5.05 135.04-7.05L135.04-7.05Q135.04-8.5 134.16-9.2 133.29-9.9 131.69-10.38 130.09-10.85 127.89-11.45L127.89-11.45Q125.19-12.25 123.34-13.15 121.49-14.05 120.54-15.4 119.59-16.75 119.59-18.8L119.59-18.8Q119.59-21.3 120.89-23.03 122.19-24.75 124.47-25.65 126.74-26.55 129.64-26.55L129.64-26.55Q132.54-26.55 134.89-25.65 137.24-24.75 138.94-23L138.94-23 136.94-19.95Q135.39-21.55 133.54-22.33 131.69-23.1 129.39-23.1L129.39-23.1Q128.04-23.1 126.74-22.78 125.44-22.45 124.59-21.63 123.74-20.8 123.74-19.3L123.74-19.3Q123.74-18.05 124.42-17.32 125.09-16.6 126.42-16.1 127.74-15.6 129.64-15L129.64-15Q132.59-14.15 134.76-13.3 136.94-12.45 138.14-11.1 139.34-9.75 139.34-7.35L139.34-7.35Q139.34-3.65 136.54-1.58 133.74 0.5 129.14 0.5ZM156.14 0.5L156.14 0.5Q153.19 0.5 150.76-0.58 148.34-1.65 146.56-3.53 144.79-5.4 143.81-7.85 142.84-10.3 142.84-13.05L142.84-13.05Q142.84-16.75 144.54-19.8 146.24-22.85 149.26-24.7 152.29-26.55 156.19-26.55L156.19-26.55Q160.14-26.55 163.06-24.68 165.99-22.8 167.61-19.78 169.24-16.75 169.24-13.25L169.24-13.25Q169.24-12.75 169.21-12.28 169.19-11.8 169.14-11.55L169.14-11.55 147.49-11.55Q147.69-9 148.91-7.03 150.14-5.05 152.09-3.93 154.04-2.8 156.29-2.8L156.29-2.8Q158.69-2.8 160.81-4 162.94-5.2 163.74-7.15L163.74-7.15 167.54-6.1Q166.69-4.2 165.01-2.7 163.34-1.2 161.06-0.35 158.79 0.5 156.14 0.5ZM147.34-14.6L147.34-14.6 165.14-14.6Q164.94-17.15 163.69-19.1 162.44-21.05 160.49-22.15 158.54-23.25 156.19-23.25L156.19-23.25Q153.89-23.25 151.94-22.15 149.99-21.05 148.76-19.1 147.54-17.15 147.34-14.6Z" opacity="1" transform="matrix(1,0,0,1,0,0)" fill="#ffffff" class="wordmark-text-0" data-fill-palette-color="primary" id="text-0"></path></svg></g></svg></g></svg></g></svg></g><g transform="matrix(1,0,0,1,129.29146457163034,0)"><svg viewBox="0 0 138.9146708567393 122.57284654545455" height="122.57284654545455" width="138.9146708567393"><g><svg xmlns="http://www.w3.org/2000/svg" xmlns:xlink="http://www.w3.org/1999/xlink" version="1.1" x="8.000000000000007" y="0" viewBox="5.958033923305141 6.08 88.08596607669486 87.841" enable-background="new 0 0 100 100" xml:space="preserve" height="122.57284654545455" width="122.91467085673928" class="icon-icon-0" data-fill-palette-color="accent" id="icon-0"><path d="M87.921 64.017c-1.854-1.63-17.356-7.408-25.238-10.109 3.012-3.726 4.971-8.288 5.784-11.438 1.18-1.17 2.043-3.33 2.118-5.423 0.064-1.801-0.465-3.362-1.501-4.468 0.006-0.536 3.317-7.547 0.336-15.516C66.111 8.218 59.389 6.08 55.611 6.08c-4.634 0-8.772 2.64-10.726 4.118-0.989-0.935-2.609-2.065-4.653-2.065-3.293 0-6.983 2.111-9.502 7.698-3.466 7.691-0.566 14.727 0.305 17.193-0.927 0.987-1.425 2.306-1.42 3.814 0.006 2.079 1.004 4.436 2.349 5.687 0.552 2.109 2.108 7.061 5.408 11.383-16.008 6.026-24.514 9.463-25.291 10.22-1.808 1.76-4.854 15.645-6.08 20.673-0.11 0.45-0.006 0.926 0.28 1.291 0.287 0.365 0.724 0.577 1.188 0.577h12.229l1.472 6.095c0.164 0.679 0.771 1.157 1.468 1.157H77.87c0.698 0 1.305-0.478 1.468-1.156l1.472-6.096h11.703c0.007 0 0.013 0 0.02 0 0.835 0 1.511-0.677 1.511-1.511C94.044 84.976 89.842 65.705 87.921 64.017zM34.775 41.32c-0.088-0.364-0.307-0.683-0.616-0.894-0.604-0.413-1.524-2.058-1.524-3.597 0-2.019 1.304-2.066 1.304-2.066 0.307-0.028 2.688-4.897 3.539-7.753 0.737-2.474 1.049-4.361 1.175-5.639 2.111 1.744 5.034 3.768 11.894 3.72 6.507-0.046 10.276-4.721 11.031-5.394 2.606 3.724 4.423 14.985 4.48 15.066 0.046 0.067 1.597 0.063 1.507 2.175-0.073 1.728-0.887 3.16-1.331 3.477-0.302 0.215-0.514 0.535-0.596 0.897-0.714 3.15-4.751 16.529-15.618 16.529C38.942 57.841 35.193 43.058 34.775 41.32zM76.681 90.899H23.826l-4.104-18.849h61.063L76.681 90.899z" fill="#ffffff" data-fill-palette-color="accent"></path></svg></g></svg></g><g><rect width="46.81283163251244" height="7.998368883246545" y="113.57447766220801" x="268.20613542836963" fill="#ff908b" data-fill-palette-color="secondary"></rect><rect width="46.81283163251244" height="7.998368883246545" y="113.57447766220801" x="82.4786329391179" fill="#ff908b" data-fill-palette-color="secondary"></rect></g></svg></g><defs></defs></svg><rect width="376.2788578022074" height="247.2" fill="none" stroke="none" visibility="hidden"></rect></g></svg></g></svg>